<svg width="31" height="31" viewBox="0 0 31 31" fill="none" xmlns="http://www.w3.org/2000/svg">
<mask id="mask0_10888_6275" style="mask-type:alpha" maskUnits="userSpaceOnUse" x="0" y="0" width="31" height="31">
<rect x="0.199951" y="0.200195" width="30" height="30" fill="#C4C4C4"/>
</mask>
<g mask="url(#mask0_10888_6275)">
<path d="M26.6328 14.7408V11.5083H24.9492V14.7408H21.582V16.3571H24.9492V19.5896H26.6328V16.3571H30V14.7408H26.6328Z" fill="white"/>
<path d="M10.1287 14.5424V18.3424H15.5038C14.7191 20.554 12.6063 22.1424 10.1287 22.1424C6.98606 22.1424 4.42866 19.585 4.42866 16.4424C4.42866 13.2998 6.98606 10.7424 10.1287 10.7424C11.491 10.7424 12.802 11.2307 13.8204 12.118L16.317 9.25278C14.607 7.76318 12.4106 6.94238 10.1287 6.94238C4.89036 6.94238 0.628662 11.2041 0.628662 16.4424C0.628662 21.6807 4.89036 25.9424 10.1287 25.9424C15.367 25.9424 19.6287 21.6807 19.6287 16.4424V14.5424H10.1287Z" fill="white"/>
</g>
</svg>
