<svg width="23" height="23" viewBox="0 0 23 23" fill="none" xmlns="http://www.w3.org/2000/svg">
<path d="M22.1382 22.5308V22.5299H22.1437V14.4614C22.1437 10.5142 21.294 7.47363 16.6795 7.47363C14.4611 7.47363 12.9725 8.69097 12.3647 9.84505H12.3005V7.84213H7.92529V22.5299H12.4811V15.2571C12.4811 13.3421 12.8441 11.4905 15.2155 11.4905C17.5521 11.4905 17.587 13.6758 17.587 15.3799V22.5308H22.1382Z" fill="white"/>
<path d="M0.364014 7.84326H4.92535V22.531H0.364014V7.84326Z" fill="white"/>
<path d="M2.64183 0.165039C1.18342 0.165039 0 1.34846 0 2.80687C0 4.26529 1.18342 5.47346 2.64183 5.47346C4.10025 5.47346 5.28367 4.26529 5.28367 2.80687C5.28275 1.34846 4.09933 0.165039 2.64183 0.165039V0.165039Z" fill="white"/>
</svg>
