<svg width="25" height="20" viewBox="0 0 25 20" fill="none" xmlns="http://www.w3.org/2000/svg">
<path d="M24.7646 2.32315C23.8721 2.71465 22.9211 2.97415 21.9296 3.10015C22.9496 2.49115 23.7281 1.53415 24.0941 0.380648C23.1431 0.947648 22.0931 1.34815 20.9741 1.57165C20.0711 0.610149 18.7841 0.0146484 17.3801 0.0146484C14.6561 0.0146484 12.4631 2.22565 12.4631 4.93615C12.4631 5.32615 12.4961 5.70115 12.5771 6.05815C8.48665 5.85865 4.86715 3.89815 2.43565 0.911648C2.01115 1.64815 1.76215 2.49115 1.76215 3.39865C1.76215 5.10265 2.63965 6.61315 3.94765 7.48765C3.15715 7.47265 2.38165 7.24315 1.72465 6.88165C1.72465 6.89665 1.72465 6.91615 1.72465 6.93565C1.72465 9.32665 3.43015 11.3126 5.66665 11.7701C5.26615 11.8796 4.82965 11.9321 4.37665 11.9321C4.06165 11.9321 3.74365 11.9141 3.44515 11.8481C4.08265 13.7966 5.89165 15.2291 8.04265 15.2756C6.36865 16.5851 4.24315 17.3741 1.94215 17.3741C1.53865 17.3741 1.15165 17.3561 0.764648 17.3066C2.94415 18.7121 5.52715 19.5146 8.31265 19.5146C17.3666 19.5146 22.3166 12.0146 22.3166 5.51365C22.3166 5.29615 22.3091 5.08615 22.2986 4.87765C23.2751 4.18465 24.0956 3.31915 24.7646 2.32315Z" fill="white"/>
</svg>
